<?xml version="1.0" encoding="utf-8"?>
<!-- Generator: Adobe Illustrator 26.3.1, SVG Export Plug-In . SVG Version: 6.00 Build 0)  -->
<svg version="1.1" id="Layer_1" xmlns="http://www.w3.org/2000/svg" xmlns:xlink="http://www.w3.org/1999/xlink" x="0px" y="0px"
	 viewBox="0 0 573.6 189.8" style="enable-background:new 0 0 573.6 189.8;" xml:space="preserve">
<style type="text/css">
	.st0{fill:none;stroke:#446688;stroke-width:8;stroke-miterlimit:10;}
	.st1{enable-background:new    ;}
	.st2{fill:#DF6347;}
</style>
<path class="st0" d="M402.9,110.7c13.3,0,24,10.7,24,24"/>
<g class="st1">
	<path class="st2" d="M109.3,144.8h-7.5c-1.4,0-2.6-0.7-3.1-2l-10.4-25H25.5l-10.4,25c-0.5,1.4-1.7,2-3.1,2H4.6
		c-1.9,0-2.7-1.2-2-2.9L51,27.3c0.5-1.4,1.7-2,3.1-2H60c1.4,0,2.6,0.7,3.1,2l48.3,114.6C112,143.6,111.2,144.8,109.3,144.8z
		 M29.9,106.9H84L57,42L29.9,106.9z"/>
	<path class="st2" d="M231,27.8v115.6c0,1.5-1,2.6-2.6,2.6h-3.1c-1.4,0-2.2-0.5-3.1-1.5l-79-96.6v94.3c0,1.5-1,2.5-2.5,2.5h-7
		c-1.5,0-2.5-1-2.5-2.5V26.6c0-1.5,1-2.5,2.5-2.5h3.2c1.4,0,2.2,0.5,3.1,1.5l78.9,96.9V27.8c0-1.5,1-2.5,2.6-2.5h7
		C230,25.3,231,26.3,231,27.8z"/>
	<path class="st2" d="M364.6,92.9v39.3c0,1.4-0.3,2.4-1.9,3.2c-6.6,3.7-20.4,10.9-43.2,10.9c-35.5,0-62.9-25.8-62.9-61
		s27.4-61.5,63.2-61.5c19.2,0,31.1,6,36.7,9.5c1.4,0.8,1.7,2,0.9,3.6l-3.1,5.1c-0.7,1.2-1.9,1.9-3.4,0.8c-4.8-3.2-14.8-8-29.9-8
		c-28.7,0-52.2,21.1-52.2,50.5s23.5,50,51.2,50c14.3,0,25.3-3.6,32.3-7V92.9c0-1.5,1-2.5,2.6-2.5h7.1
		C363.6,90.4,364.6,91.4,364.6,92.9z"/>
	<path class="st2" d="M468.3,136.4v5.8c0,1.5-1,2.5-2.5,2.5h-72.1c-1.5,0-2.5-1-2.5-2.5V27.8c0-1.5,1-2.5,2.5-2.5h7
		c1.5,0,2.5,1,2.5,2.5v106.1h62.6C467.3,133.9,468.3,134.9,468.3,136.4z"/>
	<path class="st2" d="M499.6,36.1v42.5H554c1.5,0,2.6,1,2.6,2.5V87c0,1.5-1,2.6-2.6,2.6h-54.4V134h62.6c1.5,0,2.5,1,2.5,2.5v5.8
		c0,1.5-1,2.5-2.5,2.5h-72.1c-1.5,0-2.5-1-2.5-2.5V27.8c0-1.5,1-2.5,2.5-2.5h72.1c1.5,0,2.5,1,2.5,2.5v5.8c0,1.5-1,2.5-2.5,2.5
		H499.6z"/>
</g>
</svg>
