<?xml version="1.0" encoding="utf-8"?>
<!-- Generator: Adobe Illustrator 26.3.1, SVG Export Plug-In . SVG Version: 6.00 Build 0)  -->
<svg version="1.1" id="Layer_1" xmlns="http://www.w3.org/2000/svg" xmlns:xlink="http://www.w3.org/1999/xlink" x="0px" y="0px"
	 viewBox="0 0 573.6 189.8" style="enable-background:new 0 0 573.6 189.8;" xml:space="preserve">
<style type="text/css">
	.st0{fill:none;stroke:#446688;stroke-width:4;stroke-miterlimit:10;}
	.st1{fill:#DF6347;}
</style>
<path class="st0" d="M398.3,116.9c13.3,0,24,10.7,24,24"/>
<g>
	<g>
		<path class="st1" d="M109,145.9h-2.8c-0.7,0-1.4-0.3-1.5-1l-12.4-29.2H22L9.4,144.9c-0.3,0.7-0.9,1-1.5,1H5.3
			c-1,0-1.5-0.5-1.2-1.5L54.3,26c0.5-0.7,1-1,1.7-1h2.2c0.7,0,1.2,0.3,1.5,1L110,144.3C110.4,145.4,109.9,145.9,109,145.9z
			 M24,110.8h66.2L57.1,32.5L24,110.8z"/>
		<path class="st1" d="M228.2,26.4v119.2c0,0.9-0.3,1.2-1.2,1.2h-1.5c-0.7,0-1.4-0.2-1.7-0.9L137.4,33.4v111.1
			c0,0.9-0.3,1.4-1.2,1.4h-2.6c-0.9,0-1.4-0.5-1.4-1.4v-119c0-0.7,0.5-1.4,1.4-1.4h1.7c0.7,0,1.2,0.3,1.5,0.9l86.3,112.3V26.4
			c0-0.7,0.3-1.4,1.2-1.4h2.6C227.9,25,228.2,25.5,228.2,26.4z"/>
		<path class="st1" d="M364.4,95.3v40.1c0,0.9-0.3,1.2-1.2,1.7c-6.4,3.4-21.3,10.3-43.2,10.3c-35.3,0-63-25.5-63-61.6
			c0-36.1,27.7-62.4,63-62.4c19.1,0,31.1,6.4,36.1,10c0.7,0.3,0.9,1,0.3,1.7l-1.2,2.1c-0.7,0.7-1.2,0.9-2.1,0.3
			c-4.5-3.3-15.3-9.1-33-9.1c-31,0-57.8,24.1-57.8,57.4c0,34.1,26.8,56.6,57.4,56.6c18.6,0,31.8-5.2,39.4-8.9V95.3
			c0-0.7,0.5-1.2,1.4-1.2h2.4C363.9,94.1,364.4,94.5,364.4,95.3z"/>
		<path class="st1" d="M468.1,142.3v2.2c0,0.9-0.5,1.4-1.4,1.4h-71.9c-0.7,0-1.4-0.5-1.4-1.4V26.4c0-0.9,0.5-1.4,1.4-1.4h2.6
			c0.9,0,1.2,0.5,1.2,1.4v114.5h68.1C467.5,140.9,468.1,141.4,468.1,142.3z"/>
		<path class="st1" d="M494.6,30v51.8h59.5c0.7,0,1.4,0.5,1.4,1.4v2.2c0,0.9-0.5,1.4-1.4,1.4h-59.5v54.2h68.3c0.7,0,1.2,0.5,1.2,1.4
			v2.2c0,0.9-0.3,1.4-1.2,1.4h-72.1c-0.7,0-1.4-0.5-1.4-1.4V26.4c0-0.9,0.5-1.4,1.4-1.4h72.1c0.7,0,1.2,0.5,1.2,1.4v2.2
			c0,0.9-0.3,1.4-1.2,1.4H494.6z"/>
	</g>
</g>
</svg>
